<svg id="SvgjsSvg1023" width="288" height="288" xmlns="http://www.w3.org/2000/svg" version="1.1" xmlns:xlink="http://www.w3.org/1999/xlink" xmlns:svgjs="http://svgjs.com/svgjs"><defs id="SvgjsDefs1024"></defs><g id="SvgjsG1025" transform="matrix(0.916700005531311,0,0,0.916700005531311,11.995199203491211,11.995199203491211)"><svg xmlns="http://www.w3.org/2000/svg" viewBox="0 0 32 32" width="288" height="288"><circle cx="16" cy="16" r="2" fill="#6666ff" class="color000 svgShape"></circle><rect width="3" height="6" x="14.5" y="25" fill="#6666ff" class="color000 svgShape"></rect><path d="M17 7.5V7h5a1 1 0 0 0 1-1V2a1 1 0 0 0-1-1H16a1 1 0 0 0-1 1V7.5L7.4 13.2A1 1 0 0 0 7 14V30a1 1 0 0 0 1 1h4.5V24a1 1 0 0 1 1-1h5a1 1 0 0 1 1 1v7H24a1 1 0 0 0 1-1V14a1 1 0 0 0-.4-.8zM16 20a4 4 0 1 1 4-4A4 4 0 0 1 16 20zM1 18V30a1 1 0 0 0 1 1H5V17H2A1 1 0 0 0 1 18zM30 17H27V31h3a1 1 0 0 0 1-1V18A1 1 0 0 0 30 17z" fill="#6666ff" class="color000 svgShape"></path></svg></g></svg>